<svg xmlns="http://www.w3.org/2000/svg" width="1300" height="1500" viewBox="0 0 1300 1500" font-family="Segoe UI, Inter, Helvetica, Arial, sans-serif">
<defs><filter id="card" x="-4%" y="-4%" width="108%" height="112%"><feDropShadow dx="0" dy="1.5" stdDeviation="2.5" flood-color="#0F172A" flood-opacity="0.10"/></filter></defs>
<rect width="100%" height="100%" fill="#FFFFFF"/>
<text x="60" y="62" font-size="26" font-weight="700" fill="#0F172A">Data Intelligence Platform - Entity Relationship Diagram</text>
<text x="60" y="88" font-size="13.5" fill="#64748B">Phase 3 deliverable (SOW 6).  CPI series CUUR0000SA0 (BLS) and the Secured Overnight Financing Rate (NY Fed), one table each.</text>
<rect x="524.8" y="107.5" width="21.2" height="12" rx="3" fill="#0F172A" fill-opacity="0.13"/><text x="535.4" y="116.5" text-anchor="middle" font-size="8.5" font-weight="600" fill="#0F172A">PK</text>
<text x="553.0" y="120.0" font-size="11.5" fill="#64748B">Primary key</text>
<rect x="647.4" y="107.5" width="21.2" height="12" rx="3" fill="#0F172A" fill-opacity="0.13"/><text x="658.0" y="116.5" text-anchor="middle" font-size="8.5" font-weight="600" fill="#0F172A">FK</text>
<text x="675.6" y="120.0" font-size="11.5" fill="#64748B">Foreign key</text>
<rect x="770.0" y="107.5" width="21.2" height="12" rx="3" fill="#0F172A" fill-opacity="0.13"/><text x="780.6" y="116.5" text-anchor="middle" font-size="8.5" font-weight="600" fill="#0F172A">UQ</text>
<text x="798.2" y="120.0" font-size="11.5" fill="#64748B">Part of the vintage key (clustered)</text>
<rect x="1046.2" y="107.5" width="26.8" height="12" rx="3" fill="#0F172A" fill-opacity="0.13"/><text x="1059.6" y="116.5" text-anchor="middle" font-size="8.5" font-weight="600" fill="#0F172A">UQf</text>
<text x="1080.0" y="120.0" font-size="11.5" fill="#64748B">Unique where IsCurrent = 1</text>
<polyline points="400.0,300.4 460.0,307.7" fill="none" stroke="#94A3B8" stroke-width="1.6" stroke-linejoin="round"/>
<line x1="407.6" y1="295.7" x2="406.3" y2="306.7" stroke="#94A3B8" stroke-width="2"/>
<circle cx="460.0" cy="307.7" r="3.6" fill="#94A3B8"/>
<text x="430.0" y="297.0" font-size="10.5" fill="#475569" text-anchor="middle">1 : N</text>
<polyline points="800.0,296.6 860.0,271.4" fill="none" stroke="#94A3B8" stroke-width="1.6" stroke-dasharray="5 4" stroke-linejoin="round"/>
<line x1="804.3" y1="288.8" x2="808.6" y2="299.0" stroke="#94A3B8" stroke-width="2"/>
<circle cx="860.0" cy="271.4" r="3.6" fill="#94A3B8"/>
<text x="830.0" y="277.0" font-size="10.5" fill="#475569" text-anchor="middle">1 : N</text>
<polyline points="534.8,452.0 534.8,454.0 247.0,454.0 247.0,530.0" fill="none" stroke="#94A3B8" stroke-width="1.6" stroke-linejoin="round"/>
<line x1="540.3" y1="459.0" x2="529.3" y2="459.0" stroke="#94A3B8" stroke-width="2"/>
<circle cx="247.0" cy="530.0" r="3.6" fill="#94A3B8"/>
<text x="347.9" y="448.0" font-size="10.5" fill="#475569" text-anchor="middle">1 : N</text>
<polyline points="647.0,452.0 647.0,530.0" fill="none" stroke="#94A3B8" stroke-width="1.6" stroke-linejoin="round"/>
<line x1="652.5" y1="459.0" x2="641.5" y2="459.0" stroke="#94A3B8" stroke-width="2"/>
<circle cx="647.0" cy="530.0" r="3.6" fill="#94A3B8"/>
<text x="667.0" y="485.0" font-size="10.5" fill="#475569" text-anchor="middle">1 : N</text>
<polyline points="752.4,452.0 752.4,454.0 1013.0,454.0 1013.0,530.0" fill="none" stroke="#94A3B8" stroke-width="1.6" stroke-dasharray="5 4" stroke-linejoin="round"/>
<line x1="757.9" y1="459.0" x2="746.9" y2="459.0" stroke="#94A3B8" stroke-width="2"/>
<circle cx="1013.0" cy="530.0" r="3.6" fill="#94A3B8"/>
<text x="925.7" y="448.0" font-size="10.5" fill="#475569" text-anchor="middle">1 : N</text>
<polyline points="400.0,1015.1 460.0,1002.5" fill="none" stroke="#94A3B8" stroke-width="1.6" stroke-dasharray="5 4" stroke-linejoin="round"/>
<line x1="405.7" y1="1008.3" x2="408.0" y2="1019.0" stroke="#94A3B8" stroke-width="2"/>
<circle cx="460.0" cy="1002.5" r="3.6" fill="#94A3B8"/>
<text x="430.0" y="1001.8" font-size="10.5" fill="#475569" text-anchor="middle">1 : N</text>
<polyline points="860.0,1010.0 800.0,1010.0" fill="none" stroke="#94A3B8" stroke-width="1.6" stroke-linejoin="round"/>
<line x1="853.0" y1="1015.5" x2="853.0" y2="1004.5" stroke="#94A3B8" stroke-width="2"/>
<circle cx="800.0" cy="1010.0" r="3.6" fill="#94A3B8"/>
<text x="830.0" y="1003.0" font-size="10.5" fill="#475569" text-anchor="middle">1 : N</text>
<polyline points="460.0,1300.3 400.0,1256.2" fill="none" stroke="#94A3B8" stroke-width="1.6" stroke-linejoin="round"/>
<line x1="408.9" y1="1256.0" x2="402.4" y2="1264.8" stroke="#94A3B8" stroke-width="2"/>
<circle cx="460.0" cy="1300.3" r="3.6" fill="#94A3B8"/>
<text x="430.0" y="1271.3" font-size="10.5" fill="#475569" text-anchor="middle">N : 1</text>
<polyline points="860.0,1260.0 800.0,1310.4" fill="none" stroke="#94A3B8" stroke-width="1.6" stroke-linejoin="round"/>
<line x1="801.8" y1="1301.7" x2="808.9" y2="1310.1" stroke="#94A3B8" stroke-width="2"/>
<circle cx="860.0" cy="1260.0" r="3.6" fill="#94A3B8"/>
<text x="830.0" y="1278.2" font-size="10.5" fill="#475569" text-anchor="middle">1 : 1</text>
<polyline points="128.0,1097.0 128.0,1190.0" fill="none" stroke="#94A3B8" stroke-width="1.6" stroke-linejoin="round"/>
<line x1="133.5" y1="1104.0" x2="122.5" y2="1104.0" stroke="#94A3B8" stroke-width="2"/>
<circle cx="128.0" cy="1190.0" r="3.6" fill="#94A3B8"/>
<text x="136.0" y="1137.5" font-size="10.5" fill="#475569" text-anchor="middle">1 : N</text>
<polyline points="270.8,1097.0 270.8,1160.0 534.8,1160.0 534.8,1190.0" fill="none" stroke="#94A3B8" stroke-width="1.6" stroke-linejoin="round"/>
<line x1="276.3" y1="1104.0" x2="265.3" y2="1104.0" stroke="#94A3B8" stroke-width="2"/>
<circle cx="534.8" cy="1190.0" r="3.6" fill="#94A3B8"/>
<text x="394.3" y="1154.0" font-size="10.5" fill="#475569" text-anchor="middle">1 : N</text>
<text x="60" y="174.0" font-size="12.5" font-weight="700" fill="#4F46E5" letter-spacing="1.2">COLLECT</text>
<text x="60" y="514.0" font-size="12.5" font-weight="700" fill="#0D9488" letter-spacing="1.2">CORE</text>
<text x="60" y="924.0" font-size="12.5" font-weight="700" fill="#B45309" letter-spacing="1.2">SEC</text>
<text x="60" y="1174.0" font-size="12.5" font-weight="700" fill="#7C3AED" letter-spacing="1.2">AI</text>
<g filter="url(#card)"><rect x="60.0" y="190.0" width="340.0" height="241.0" rx="10" fill="#FFFFFF" stroke="#CBD5E1" stroke-width="1"/></g>
<path d="M60.0,200.0 a10,10 0 0 1 10,-10 h320.0 a10,10 0 0 1 10,10 v30.0 h-340.0 z" fill="#4F46E5"/>
<text x="74.0" y="215.0" font-size="14.5" font-weight="700" fill="#FFFFFF">DataSource</text>
<text x="386.0" y="215.0" font-size="10.5" fill="#FFFFFF" fill-opacity="0.8" text-anchor="end">collect</text>
<text x="74.0" y="244.5" font-size="11.5" fill="#0F172A" font-weight="650">DataSourceId</text>
<rect x="157.2" y="236.0" width="21.2" height="12" rx="3" fill="#4F46E5" fill-opacity="0.13"/><text x="167.8" y="245.0" text-anchor="middle" font-size="8.5" font-weight="600" fill="#4F46E5">PK</text>
<text x="386.0" y="244.5" font-size="10" fill="#64748B" text-anchor="end">TINYINT</text>
<rect x="61.0" y="251.0" width="338.0" height="21.0" fill="#EEF2FF"/>
<text x="74.0" y="265.5" font-size="11.5" fill="#0F172A">Code</text>
<rect x="106.4" y="257.0" width="21.2" height="12" rx="3" fill="#4F46E5" fill-opacity="0.13"/><text x="117.0" y="266.0" text-anchor="middle" font-size="8.5" font-weight="600" fill="#4F46E5">UQ</text>
<text x="386.0" y="265.5" font-size="10" fill="#64748B" text-anchor="end">VARCHAR(20)</text>
<text x="74.0" y="286.5" font-size="11.5" fill="#0F172A">Name</text>
<text x="386.0" y="286.5" font-size="10" fill="#64748B" text-anchor="end">NVARCHAR(100)</text>
<rect x="61.0" y="293.0" width="338.0" height="21.0" fill="#EEF2FF"/>
<text x="74.0" y="307.5" font-size="11.5" fill="#0F172A">Publisher</text>
<text x="386.0" y="307.5" font-size="10" fill="#64748B" text-anchor="end">NVARCHAR(100)</text>
<text x="74.0" y="328.5" font-size="11.5" fill="#0F172A">ApiEndpoint</text>
<text x="386.0" y="328.5" font-size="10" fill="#64748B" text-anchor="end">NVARCHAR(1000)</text>
<rect x="61.0" y="335.0" width="338.0" height="21.0" fill="#EEF2FF"/>
<text x="74.0" y="349.5" font-size="11.5" fill="#0F172A">AccessMethod</text>
<text x="386.0" y="349.5" font-size="10" fill="#64748B" text-anchor="end">VARCHAR(20)</text>
<text x="74.0" y="370.5" font-size="11.5" fill="#0F172A">HttpMethod</text>
<text x="386.0" y="370.5" font-size="10" fill="#64748B" text-anchor="end">VARCHAR(6)</text>
<rect x="61.0" y="377.0" width="338.0" height="21.0" fill="#EEF2FF"/>
<text x="74.0" y="391.5" font-size="11.5" fill="#0F172A">PublicationCadence</text>
<text x="386.0" y="391.5" font-size="10" fill="#64748B" text-anchor="end">VARCHAR(20)</text>
<text x="74.0" y="412.5" font-size="11.5" fill="#0F172A">IsEnabled</text>
<text x="386.0" y="412.5" font-size="10" fill="#64748B" text-anchor="end">BIT</text>
<text x="74.0" y="428.0" font-size="9.5" font-style="italic" fill="#64748B">2 rows: BLS_CPI, NYFED_SOFR</text>
<g filter="url(#card)"><rect x="460.0" y="190.0" width="340.0" height="262.0" rx="10" fill="#FFFFFF" stroke="#CBD5E1" stroke-width="1"/></g>
<path d="M460.0,200.0 a10,10 0 0 1 10,-10 h320.0 a10,10 0 0 1 10,10 v30.0 h-340.0 z" fill="#4F46E5"/>
<text x="474.0" y="215.0" font-size="14.5" font-weight="700" fill="#FFFFFF">CollectionRun</text>
<text x="786.0" y="215.0" font-size="10.5" fill="#FFFFFF" fill-opacity="0.8" text-anchor="end">collect</text>
<text x="474.0" y="244.5" font-size="11.5" fill="#0F172A" font-weight="650">CollectionRunId</text>
<rect x="576.2" y="236.0" width="21.2" height="12" rx="3" fill="#4F46E5" fill-opacity="0.13"/><text x="586.9" y="245.0" text-anchor="middle" font-size="8.5" font-weight="600" fill="#4F46E5">PK</text>
<text x="786.0" y="244.5" font-size="10" fill="#64748B" text-anchor="end">BIGINT</text>
<rect x="461.0" y="251.0" width="338.0" height="21.0" fill="#EEF2FF"/>
<text x="474.0" y="265.5" font-size="11.5" fill="#0F172A">DataSourceId</text>
<rect x="557.2" y="257.0" width="21.2" height="12" rx="3" fill="#4F46E5" fill-opacity="0.13"/><text x="567.8" y="266.0" text-anchor="middle" font-size="8.5" font-weight="600" fill="#4F46E5">FK</text>
<rect x="582.4" y="257.0" width="21.2" height="12" rx="3" fill="#4F46E5" fill-opacity="0.13"/><text x="593.0" y="266.0" text-anchor="middle" font-size="8.5" font-weight="600" fill="#4F46E5">UQ</text>
<text x="786.0" y="265.5" font-size="10" fill="#64748B" text-anchor="end">TINYINT</text>
<text x="474.0" y="286.5" font-size="11.5" fill="#0F172A">ScheduledForUtc</text>
<rect x="576.2" y="278.0" width="21.2" height="12" rx="3" fill="#4F46E5" fill-opacity="0.13"/><text x="586.9" y="287.0" text-anchor="middle" font-size="8.5" font-weight="600" fill="#4F46E5">UQ</text>
<text x="786.0" y="286.5" font-size="10" fill="#64748B" text-anchor="end">DATETIME2(0)</text>
<rect x="461.0" y="293.0" width="338.0" height="21.0" fill="#EEF2FF"/>
<text x="474.0" y="307.5" font-size="11.5" fill="#0F172A">Attempt</text>
<rect x="525.5" y="299.0" width="21.2" height="12" rx="3" fill="#4F46E5" fill-opacity="0.13"/><text x="536.1" y="308.0" text-anchor="middle" font-size="8.5" font-weight="600" fill="#4F46E5">UQ</text>
<text x="786.0" y="307.5" font-size="10" fill="#64748B" text-anchor="end">TINYINT</text>
<text x="474.0" y="328.5" font-size="11.5" fill="#0F172A">Status</text>
<text x="786.0" y="328.5" font-size="10" fill="#64748B" text-anchor="end">VARCHAR(20)</text>
<rect x="461.0" y="335.0" width="338.0" height="21.0" fill="#EEF2FF"/>
<text x="474.0" y="349.5" font-size="11.5" fill="#0F172A">StartedAtUtc</text>
<text x="786.0" y="349.5" font-size="10" fill="#64748B" text-anchor="end">DATETIME2(3)</text>
<text x="474.0" y="370.5" font-size="11.5" fill="#0F172A">CompletedAtUtc</text>
<text x="786.0" y="370.5" font-size="10" fill="#64748B" text-anchor="end">DATETIME2(3)</text>
<rect x="461.0" y="377.0" width="338.0" height="21.0" fill="#EEF2FF"/>
<text x="474.0" y="391.5" font-size="11.5" fill="#0F172A">ObservationsInserted</text>
<text x="786.0" y="391.5" font-size="10" fill="#64748B" text-anchor="end">INT</text>
<text x="474.0" y="412.5" font-size="11.5" fill="#0F172A">ObservationsRevised</text>
<text x="786.0" y="412.5" font-size="10" fill="#64748B" text-anchor="end">INT</text>
<rect x="461.0" y="419.0" width="338.0" height="21.0" fill="#EEF2FF"/>
<text x="474.0" y="433.5" font-size="11.5" fill="#0F172A">FailureCategory</text>
<text x="786.0" y="433.5" font-size="10" fill="#64748B" text-anchor="end">VARCHAR(30)</text>
<text x="474.0" y="449.0" font-size="9.5" font-style="italic" fill="#64748B">one row per attempt (FR-2)</text>
<g filter="url(#card)"><rect x="860.0" y="190.0" width="340.0" height="178.0" rx="10" fill="#FFFFFF" stroke="#CBD5E1" stroke-width="1"/></g>
<path d="M860.0,200.0 a10,10 0 0 1 10,-10 h320.0 a10,10 0 0 1 10,10 v30.0 h-340.0 z" fill="#4F46E5"/>
<text x="874.0" y="215.0" font-size="14.5" font-weight="700" fill="#FFFFFF">RawPayload</text>
<text x="1186.0" y="215.0" font-size="10.5" fill="#FFFFFF" fill-opacity="0.8" text-anchor="end">collect</text>
<text x="874.0" y="244.5" font-size="11.5" fill="#0F172A" font-weight="650">RawPayloadId</text>
<rect x="957.2" y="236.0" width="21.2" height="12" rx="3" fill="#4F46E5" fill-opacity="0.13"/><text x="967.8" y="245.0" text-anchor="middle" font-size="8.5" font-weight="600" fill="#4F46E5">PK</text>
<text x="1186.0" y="244.5" font-size="10" fill="#64748B" text-anchor="end">BIGINT</text>
<rect x="861.0" y="251.0" width="338.0" height="21.0" fill="#EEF2FF"/>
<text x="874.0" y="265.5" font-size="11.5" fill="#0F172A">CollectionRunId</text>
<rect x="976.2" y="257.0" width="21.2" height="12" rx="3" fill="#4F46E5" fill-opacity="0.13"/><text x="986.9" y="266.0" text-anchor="middle" font-size="8.5" font-weight="600" fill="#4F46E5">FK</text>
<text x="1186.0" y="265.5" font-size="10" fill="#64748B" text-anchor="end">BIGINT</text>
<text x="874.0" y="286.5" font-size="11.5" fill="#0F172A">FetchedAtUtc</text>
<text x="1186.0" y="286.5" font-size="10" fill="#64748B" text-anchor="end">DATETIME2(3)</text>
<rect x="861.0" y="293.0" width="338.0" height="21.0" fill="#EEF2FF"/>
<text x="874.0" y="307.5" font-size="11.5" fill="#0F172A">ContentHash</text>
<text x="1186.0" y="307.5" font-size="10" fill="#64748B" text-anchor="end">BINARY(32)</text>
<text x="874.0" y="328.5" font-size="11.5" fill="#0F172A">SizeBytes</text>
<text x="1186.0" y="328.5" font-size="10" fill="#64748B" text-anchor="end">INT</text>
<rect x="861.0" y="335.0" width="338.0" height="21.0" fill="#EEF2FF"/>
<text x="874.0" y="349.5" font-size="11.5" fill="#0F172A">CompressedContent</text>
<text x="1186.0" y="349.5" font-size="10" fill="#64748B" text-anchor="end">VARBINARY(MAX)</text>
<text x="874.0" y="365.0" font-size="9.5" font-style="italic" fill="#64748B">diagnostic; purge beyond ~90 days</text>
<g filter="url(#card)"><rect x="60.0" y="530.0" width="340.0" height="346.0" rx="10" fill="#FFFFFF" stroke="#CBD5E1" stroke-width="1"/></g>
<path d="M60.0,540.0 a10,10 0 0 1 10,-10 h320.0 a10,10 0 0 1 10,10 v30.0 h-340.0 z" fill="#0D9488"/>
<text x="74.0" y="555.0" font-size="14.5" font-weight="700" fill="#FFFFFF">CpiObservation</text>
<text x="386.0" y="555.0" font-size="10.5" fill="#FFFFFF" fill-opacity="0.8" text-anchor="end">core</text>
<text x="74.0" y="584.5" font-size="11.5" fill="#0F172A" font-weight="650">CpiObservationId</text>
<rect x="182.6" y="576.0" width="21.2" height="12" rx="3" fill="#0D9488" fill-opacity="0.13"/><text x="193.2" y="585.0" text-anchor="middle" font-size="8.5" font-weight="600" fill="#0D9488">PK</text>
<text x="386.0" y="584.5" font-size="10" fill="#64748B" text-anchor="end">BIGINT</text>
<rect x="61.0" y="591.0" width="338.0" height="21.0" fill="#F0FDFA"/>
<text x="74.0" y="605.5" font-size="11.5" fill="#0F172A">SeriesCode</text>
<text x="386.0" y="605.5" font-size="10" fill="#64748B" text-anchor="end">VARCHAR(20)</text>
<text x="74.0" y="626.5" font-size="11.5" fill="#0F172A">ReferenceDate</text>
<rect x="163.6" y="618.0" width="21.2" height="12" rx="3" fill="#0D9488" fill-opacity="0.13"/><text x="174.2" y="627.0" text-anchor="middle" font-size="8.5" font-weight="600" fill="#0D9488">UQ</text>
<text x="386.0" y="626.5" font-size="10" fill="#64748B" text-anchor="end">DATE</text>
<rect x="61.0" y="633.0" width="338.0" height="21.0" fill="#F0FDFA"/>
<text x="74.0" y="647.5" font-size="11.5" fill="#0F172A">ReferenceYear</text>
<rect x="163.6" y="639.0" width="26.8" height="12" rx="3" fill="#0D9488" fill-opacity="0.13"/><text x="177.0" y="648.0" text-anchor="middle" font-size="8.5" font-weight="600" fill="#0D9488">UQf</text>
<text x="386.0" y="647.5" font-size="10" fill="#64748B" text-anchor="end">SMALLINT</text>
<text x="74.0" y="668.5" font-size="11.5" fill="#0F172A">PeriodCode</text>
<rect x="144.5" y="660.0" width="21.2" height="12" rx="3" fill="#0D9488" fill-opacity="0.13"/><text x="155.1" y="669.0" text-anchor="middle" font-size="8.5" font-weight="600" fill="#0D9488">UQ</text>
<rect x="169.7" y="660.0" width="26.8" height="12" rx="3" fill="#0D9488" fill-opacity="0.13"/><text x="183.1" y="669.0" text-anchor="middle" font-size="8.5" font-weight="600" fill="#0D9488">UQf</text>
<text x="386.0" y="668.5" font-size="10" fill="#64748B" text-anchor="end">VARCHAR(3)</text>
<rect x="61.0" y="675.0" width="338.0" height="21.0" fill="#F0FDFA"/>
<text x="74.0" y="689.5" font-size="11.5" fill="#0F172A">PeriodType</text>
<text x="386.0" y="689.5" font-size="10" fill="#64748B" text-anchor="end">VARCHAR(10)</text>
<text x="74.0" y="710.5" font-size="11.5" fill="#0F172A">IndexValue</text>
<text x="386.0" y="710.5" font-size="10" fill="#64748B" text-anchor="end">DECIMAL(12,3)</text>
<rect x="61.0" y="717.0" width="338.0" height="21.0" fill="#F0FDFA"/>
<text x="74.0" y="731.5" font-size="11.5" fill="#0F172A">Footnotes</text>
<text x="386.0" y="731.5" font-size="10" fill="#64748B" text-anchor="end">VARCHAR(100)</text>
<text x="74.0" y="752.5" font-size="11.5" fill="#0F172A">RevisionNumber</text>
<rect x="169.9" y="744.0" width="21.2" height="12" rx="3" fill="#0D9488" fill-opacity="0.13"/><text x="180.5" y="753.0" text-anchor="middle" font-size="8.5" font-weight="600" fill="#0D9488">UQ</text>
<text x="386.0" y="752.5" font-size="10" fill="#64748B" text-anchor="end">SMALLINT</text>
<rect x="61.0" y="759.0" width="338.0" height="21.0" fill="#F0FDFA"/>
<text x="74.0" y="773.5" font-size="11.5" fill="#0F172A">IsCurrent</text>
<text x="386.0" y="773.5" font-size="10" fill="#64748B" text-anchor="end">BIT</text>
<text x="74.0" y="794.5" font-size="11.5" fill="#0F172A">SupersededAtUtc</text>
<text x="386.0" y="794.5" font-size="10" fill="#64748B" text-anchor="end">DATETIME2(3)</text>
<rect x="61.0" y="801.0" width="338.0" height="21.0" fill="#F0FDFA"/>
<text x="74.0" y="815.5" font-size="11.5" fill="#0F172A">CollectionRunId</text>
<rect x="176.2" y="807.0" width="21.2" height="12" rx="3" fill="#0D9488" fill-opacity="0.13"/><text x="186.8" y="816.0" text-anchor="middle" font-size="8.5" font-weight="600" fill="#0D9488">FK</text>
<text x="386.0" y="815.5" font-size="10" fill="#64748B" text-anchor="end">BIGINT</text>
<text x="74.0" y="836.5" font-size="11.5" fill="#0F172A">CollectedAtUtc</text>
<text x="386.0" y="836.5" font-size="10" fill="#64748B" text-anchor="end">DATETIME2(3)</text>
<rect x="61.0" y="843.0" width="338.0" height="21.0" fill="#F0FDFA"/>
<text x="74.0" y="857.5" font-size="11.5" fill="#0F172A">RowHash</text>
<text x="386.0" y="857.5" font-size="10" fill="#64748B" text-anchor="end">BINARY(32)</text>
<text x="74.0" y="873.0" font-size="9.5" font-style="italic" fill="#64748B">BLS CUUR0000SA0 only; one row per (year, period)</text>
<g filter="url(#card)"><rect x="460.0" y="530.0" width="340.0" height="388.0" rx="10" fill="#FFFFFF" stroke="#CBD5E1" stroke-width="1"/></g>
<path d="M460.0,540.0 a10,10 0 0 1 10,-10 h320.0 a10,10 0 0 1 10,10 v30.0 h-340.0 z" fill="#0D9488"/>
<text x="474.0" y="555.0" font-size="14.5" font-weight="700" fill="#FFFFFF">SofrDailyRate</text>
<text x="786.0" y="555.0" font-size="10.5" fill="#FFFFFF" fill-opacity="0.8" text-anchor="end">core</text>
<text x="474.0" y="584.5" font-size="11.5" fill="#0F172A" font-weight="650">SofrDailyRateId</text>
<rect x="576.2" y="576.0" width="21.2" height="12" rx="3" fill="#0D9488" fill-opacity="0.13"/><text x="586.9" y="585.0" text-anchor="middle" font-size="8.5" font-weight="600" fill="#0D9488">PK</text>
<text x="786.0" y="584.5" font-size="10" fill="#64748B" text-anchor="end">BIGINT</text>
<rect x="461.0" y="591.0" width="338.0" height="21.0" fill="#F0FDFA"/>
<text x="474.0" y="605.5" font-size="11.5" fill="#0F172A">RateType</text>
<text x="786.0" y="605.5" font-size="10" fill="#64748B" text-anchor="end">VARCHAR(5)</text>
<text x="474.0" y="626.5" font-size="11.5" fill="#0F172A">EffectiveDate</text>
<rect x="563.5" y="618.0" width="21.2" height="12" rx="3" fill="#0D9488" fill-opacity="0.13"/><text x="574.1" y="627.0" text-anchor="middle" font-size="8.5" font-weight="600" fill="#0D9488">UQ</text>
<rect x="588.8" y="618.0" width="26.8" height="12" rx="3" fill="#0D9488" fill-opacity="0.13"/><text x="602.1" y="627.0" text-anchor="middle" font-size="8.5" font-weight="600" fill="#0D9488">UQf</text>
<text x="786.0" y="626.5" font-size="10" fill="#64748B" text-anchor="end">DATE</text>
<rect x="461.0" y="633.0" width="338.0" height="21.0" fill="#F0FDFA"/>
<text x="474.0" y="647.5" font-size="11.5" fill="#0F172A">RatePercent</text>
<text x="786.0" y="647.5" font-size="10" fill="#64748B" text-anchor="end">DECIMAL(9,5)</text>
<text x="474.0" y="668.5" font-size="11.5" fill="#0F172A">Percentile1/25/75/99Percent</text>
<text x="786.0" y="668.5" font-size="10" fill="#64748B" text-anchor="end">DECIMAL(9,5)</text>
<rect x="461.0" y="675.0" width="338.0" height="21.0" fill="#F0FDFA"/>
<text x="474.0" y="689.5" font-size="11.5" fill="#0F172A">VolumeUsdBillions</text>
<text x="786.0" y="689.5" font-size="10" fill="#64748B" text-anchor="end">DECIMAL(12,3)</text>
<text x="474.0" y="710.5" font-size="11.5" fill="#0F172A">Average30/90/180DayPercent</text>
<text x="786.0" y="710.5" font-size="10" fill="#64748B" text-anchor="end">DECIMAL(9,5)</text>
<rect x="461.0" y="717.0" width="338.0" height="21.0" fill="#F0FDFA"/>
<text x="474.0" y="731.5" font-size="11.5" fill="#0F172A">SofrIndexValue</text>
<text x="786.0" y="731.5" font-size="10" fill="#64748B" text-anchor="end">DECIMAL(20,8)</text>
<text x="474.0" y="752.5" font-size="11.5" fill="#0F172A">RevisionIndicator</text>
<text x="786.0" y="752.5" font-size="10" fill="#64748B" text-anchor="end">CHAR(1)</text>
<rect x="461.0" y="759.0" width="338.0" height="21.0" fill="#F0FDFA"/>
<text x="474.0" y="773.5" font-size="11.5" fill="#0F172A">FootnoteId</text>
<text x="786.0" y="773.5" font-size="10" fill="#64748B" text-anchor="end">VARCHAR(20)</text>
<text x="474.0" y="794.5" font-size="11.5" fill="#0F172A">RevisionNumber</text>
<rect x="569.9" y="786.0" width="21.2" height="12" rx="3" fill="#0D9488" fill-opacity="0.13"/><text x="580.5" y="795.0" text-anchor="middle" font-size="8.5" font-weight="600" fill="#0D9488">UQ</text>
<text x="786.0" y="794.5" font-size="10" fill="#64748B" text-anchor="end">SMALLINT</text>
<rect x="461.0" y="801.0" width="338.0" height="21.0" fill="#F0FDFA"/>
<text x="474.0" y="815.5" font-size="11.5" fill="#0F172A">IsCurrent</text>
<text x="786.0" y="815.5" font-size="10" fill="#64748B" text-anchor="end">BIT</text>
<text x="474.0" y="836.5" font-size="11.5" fill="#0F172A">SupersededAtUtc</text>
<text x="786.0" y="836.5" font-size="10" fill="#64748B" text-anchor="end">DATETIME2(3)</text>
<rect x="461.0" y="843.0" width="338.0" height="21.0" fill="#F0FDFA"/>
<text x="474.0" y="857.5" font-size="11.5" fill="#0F172A">CollectionRunId</text>
<rect x="576.2" y="849.0" width="21.2" height="12" rx="3" fill="#0D9488" fill-opacity="0.13"/><text x="586.9" y="858.0" text-anchor="middle" font-size="8.5" font-weight="600" fill="#0D9488">FK</text>
<text x="786.0" y="857.5" font-size="10" fill="#64748B" text-anchor="end">BIGINT</text>
<text x="474.0" y="878.5" font-size="11.5" fill="#0F172A">CollectedAtUtc</text>
<text x="786.0" y="878.5" font-size="10" fill="#64748B" text-anchor="end">DATETIME2(3)</text>
<rect x="461.0" y="885.0" width="338.0" height="21.0" fill="#F0FDFA"/>
<text x="474.0" y="899.5" font-size="11.5" fill="#0F172A">RowHash</text>
<text x="786.0" y="899.5" font-size="10" fill="#64748B" text-anchor="end">BINARY(32)</text>
<text x="474.0" y="915.0" font-size="9.5" font-style="italic" fill="#64748B">rate type SOFR only; one row per business day</text>
<g filter="url(#card)"><rect x="860.0" y="530.0" width="340.0" height="199.0" rx="10" fill="#FFFFFF" stroke="#CBD5E1" stroke-width="1"/></g>
<path d="M860.0,540.0 a10,10 0 0 1 10,-10 h320.0 a10,10 0 0 1 10,10 v30.0 h-340.0 z" fill="#0D9488"/>
<text x="874.0" y="555.0" font-size="14.5" font-weight="700" fill="#FFFFFF">RejectedObservation</text>
<text x="1186.0" y="555.0" font-size="10.5" fill="#FFFFFF" fill-opacity="0.8" text-anchor="end">core</text>
<text x="874.0" y="584.5" font-size="11.5" fill="#0F172A" font-weight="650">RejectedObservationId</text>
<rect x="1014.4" y="576.0" width="21.2" height="12" rx="3" fill="#0D9488" fill-opacity="0.13"/><text x="1025.0" y="585.0" text-anchor="middle" font-size="8.5" font-weight="600" fill="#0D9488">PK</text>
<text x="1186.0" y="584.5" font-size="10" fill="#64748B" text-anchor="end">BIGINT</text>
<rect x="861.0" y="591.0" width="338.0" height="21.0" fill="#F0FDFA"/>
<text x="874.0" y="605.5" font-size="11.5" fill="#0F172A">CollectionRunId</text>
<rect x="976.2" y="597.0" width="21.2" height="12" rx="3" fill="#0D9488" fill-opacity="0.13"/><text x="986.9" y="606.0" text-anchor="middle" font-size="8.5" font-weight="600" fill="#0D9488">FK</text>
<text x="1186.0" y="605.5" font-size="10" fill="#64748B" text-anchor="end">BIGINT</text>
<text x="874.0" y="626.5" font-size="11.5" fill="#0F172A">SeriesCode</text>
<text x="1186.0" y="626.5" font-size="10" fill="#64748B" text-anchor="end">NVARCHAR(100)</text>
<rect x="861.0" y="633.0" width="338.0" height="21.0" fill="#F0FDFA"/>
<text x="874.0" y="647.5" font-size="11.5" fill="#0F172A">ReferenceDateText</text>
<text x="1186.0" y="647.5" font-size="10" fill="#64748B" text-anchor="end">NVARCHAR(50)</text>
<text x="874.0" y="668.5" font-size="11.5" fill="#0F172A">Reason</text>
<text x="1186.0" y="668.5" font-size="10" fill="#64748B" text-anchor="end">VARCHAR(30)</text>
<rect x="861.0" y="675.0" width="338.0" height="21.0" fill="#F0FDFA"/>
<text x="874.0" y="689.5" font-size="11.5" fill="#0F172A">ReasonDetail</text>
<text x="1186.0" y="689.5" font-size="10" fill="#64748B" text-anchor="end">NVARCHAR(1000)</text>
<text x="874.0" y="710.5" font-size="11.5" fill="#0F172A">RejectedAtUtc</text>
<text x="1186.0" y="710.5" font-size="10" fill="#64748B" text-anchor="end">DATETIME2(3)</text>
<text x="874.0" y="726.0" font-size="9.5" font-style="italic" fill="#64748B">quarantine; EFFR / OBFR / TGCR / BGCR land here</text>
<g filter="url(#card)"><rect x="60.0" y="940.0" width="340.0" height="157.0" rx="10" fill="#FFFFFF" stroke="#CBD5E1" stroke-width="1"/></g>
<path d="M60.0,950.0 a10,10 0 0 1 10,-10 h320.0 a10,10 0 0 1 10,10 v30.0 h-340.0 z" fill="#B45309"/>
<text x="74.0" y="965.0" font-size="14.5" font-weight="700" fill="#FFFFFF">AppUser</text>
<text x="386.0" y="965.0" font-size="10.5" fill="#FFFFFF" fill-opacity="0.8" text-anchor="end">sec</text>
<text x="74.0" y="994.5" font-size="11.5" fill="#0F172A" font-weight="650">UserId</text>
<rect x="119.1" y="986.0" width="21.2" height="12" rx="3" fill="#B45309" fill-opacity="0.13"/><text x="129.7" y="995.0" text-anchor="middle" font-size="8.5" font-weight="600" fill="#B45309">PK</text>
<text x="386.0" y="994.5" font-size="10" fill="#64748B" text-anchor="end">INT</text>
<rect x="61.0" y="1001.0" width="338.0" height="21.0" fill="#FFFBEB"/>
<text x="74.0" y="1015.5" font-size="11.5" fill="#0F172A">Email</text>
<rect x="112.8" y="1007.0" width="21.2" height="12" rx="3" fill="#B45309" fill-opacity="0.13"/><text x="123.3" y="1016.0" text-anchor="middle" font-size="8.5" font-weight="600" fill="#B45309">UQ</text>
<text x="386.0" y="1015.5" font-size="10" fill="#64748B" text-anchor="end">NVARCHAR(256)</text>
<text x="74.0" y="1036.5" font-size="11.5" fill="#0F172A">DisplayName</text>
<text x="386.0" y="1036.5" font-size="10" fill="#64748B" text-anchor="end">NVARCHAR(150)</text>
<rect x="61.0" y="1043.0" width="338.0" height="21.0" fill="#FFFBEB"/>
<text x="74.0" y="1057.5" font-size="11.5" fill="#0F172A">PasswordHash</text>
<text x="386.0" y="1057.5" font-size="10" fill="#64748B" text-anchor="end">NVARCHAR(500)</text>
<text x="74.0" y="1078.5" font-size="11.5" fill="#0F172A">IsActive</text>
<text x="386.0" y="1078.5" font-size="10" fill="#64748B" text-anchor="end">BIT</text>
<g filter="url(#card)"><rect x="460.0" y="940.0" width="340.0" height="115.0" rx="10" fill="#FFFFFF" stroke="#CBD5E1" stroke-width="1"/></g>
<path d="M460.0,950.0 a10,10 0 0 1 10,-10 h320.0 a10,10 0 0 1 10,10 v30.0 h-340.0 z" fill="#B45309"/>
<text x="474.0" y="965.0" font-size="14.5" font-weight="700" fill="#FFFFFF">UserRole</text>
<text x="786.0" y="965.0" font-size="10.5" fill="#FFFFFF" fill-opacity="0.8" text-anchor="end">sec</text>
<text x="474.0" y="994.5" font-size="11.5" fill="#0F172A" font-weight="650">UserId</text>
<rect x="519.1" y="986.0" width="21.2" height="12" rx="3" fill="#B45309" fill-opacity="0.13"/><text x="529.7" y="995.0" text-anchor="middle" font-size="8.5" font-weight="600" fill="#B45309">PK</text>
<rect x="544.3" y="986.0" width="21.2" height="12" rx="3" fill="#B45309" fill-opacity="0.13"/><text x="554.9" y="995.0" text-anchor="middle" font-size="8.5" font-weight="600" fill="#B45309">FK</text>
<text x="786.0" y="994.5" font-size="10" fill="#64748B" text-anchor="end">INT</text>
<rect x="461.0" y="1001.0" width="338.0" height="21.0" fill="#FFFBEB"/>
<text x="474.0" y="1015.5" font-size="11.5" fill="#0F172A" font-weight="650">RoleId</text>
<rect x="519.1" y="1007.0" width="21.2" height="12" rx="3" fill="#B45309" fill-opacity="0.13"/><text x="529.7" y="1016.0" text-anchor="middle" font-size="8.5" font-weight="600" fill="#B45309">PK</text>
<rect x="544.3" y="1007.0" width="21.2" height="12" rx="3" fill="#B45309" fill-opacity="0.13"/><text x="554.9" y="1016.0" text-anchor="middle" font-size="8.5" font-weight="600" fill="#B45309">FK</text>
<text x="786.0" y="1015.5" font-size="10" fill="#64748B" text-anchor="end">TINYINT</text>
<text x="474.0" y="1036.5" font-size="11.5" fill="#0F172A">GrantedAtUtc</text>
<text x="786.0" y="1036.5" font-size="10" fill="#64748B" text-anchor="end">DATETIME2(3)</text>
<g filter="url(#card)"><rect x="860.0" y="940.0" width="340.0" height="115.0" rx="10" fill="#FFFFFF" stroke="#CBD5E1" stroke-width="1"/></g>
<path d="M860.0,950.0 a10,10 0 0 1 10,-10 h320.0 a10,10 0 0 1 10,10 v30.0 h-340.0 z" fill="#B45309"/>
<text x="874.0" y="965.0" font-size="14.5" font-weight="700" fill="#FFFFFF">Role</text>
<text x="1186.0" y="965.0" font-size="10.5" fill="#FFFFFF" fill-opacity="0.8" text-anchor="end">sec</text>
<text x="874.0" y="994.5" font-size="11.5" fill="#0F172A" font-weight="650">RoleId</text>
<rect x="919.1" y="986.0" width="21.2" height="12" rx="3" fill="#B45309" fill-opacity="0.13"/><text x="929.7" y="995.0" text-anchor="middle" font-size="8.5" font-weight="600" fill="#B45309">PK</text>
<text x="1186.0" y="994.5" font-size="10" fill="#64748B" text-anchor="end">TINYINT</text>
<rect x="861.0" y="1001.0" width="338.0" height="21.0" fill="#FFFBEB"/>
<text x="874.0" y="1015.5" font-size="11.5" fill="#0F172A">Name</text>
<rect x="906.4" y="1007.0" width="21.2" height="12" rx="3" fill="#B45309" fill-opacity="0.13"/><text x="917.0" y="1016.0" text-anchor="middle" font-size="8.5" font-weight="600" fill="#B45309">UQ</text>
<text x="1186.0" y="1015.5" font-size="10" fill="#64748B" text-anchor="end">NVARCHAR(50)</text>
<text x="874.0" y="1036.5" font-size="11.5" fill="#0F172A">Description</text>
<text x="1186.0" y="1036.5" font-size="10" fill="#64748B" text-anchor="end">NVARCHAR(250)</text>
<text x="874.0" y="1052.0" font-size="9.5" font-style="italic" fill="#64748B">Administrator / Analyst / Viewer</text>
<g filter="url(#card)"><rect x="60.0" y="1190.0" width="340.0" height="115.0" rx="10" fill="#FFFFFF" stroke="#CBD5E1" stroke-width="1"/></g>
<path d="M60.0,1200.0 a10,10 0 0 1 10,-10 h320.0 a10,10 0 0 1 10,10 v30.0 h-340.0 z" fill="#7C3AED"/>
<text x="74.0" y="1215.0" font-size="14.5" font-weight="700" fill="#FFFFFF">AssistantSession</text>
<text x="386.0" y="1215.0" font-size="10.5" fill="#FFFFFF" fill-opacity="0.8" text-anchor="end">ai</text>
<text x="74.0" y="1244.5" font-size="11.5" fill="#0F172A" font-weight="650">SessionId</text>
<rect x="138.2" y="1236.0" width="21.2" height="12" rx="3" fill="#7C3AED" fill-opacity="0.13"/><text x="148.8" y="1245.0" text-anchor="middle" font-size="8.5" font-weight="600" fill="#7C3AED">PK</text>
<text x="386.0" y="1244.5" font-size="10" fill="#64748B" text-anchor="end">UNIQUEIDENTIFIER</text>
<rect x="61.0" y="1251.0" width="338.0" height="21.0" fill="#F5F3FF"/>
<text x="74.0" y="1265.5" font-size="11.5" fill="#0F172A">UserId</text>
<rect x="119.1" y="1257.0" width="21.2" height="12" rx="3" fill="#7C3AED" fill-opacity="0.13"/><text x="129.7" y="1266.0" text-anchor="middle" font-size="8.5" font-weight="600" fill="#7C3AED">FK</text>
<text x="386.0" y="1265.5" font-size="10" fill="#64748B" text-anchor="end">INT</text>
<text x="74.0" y="1286.5" font-size="11.5" fill="#0F172A">StartedAtUtc</text>
<text x="386.0" y="1286.5" font-size="10" fill="#64748B" text-anchor="end">DATETIME2(3)</text>
<g filter="url(#card)"><rect x="460.0" y="1190.0" width="340.0" height="241.0" rx="10" fill="#FFFFFF" stroke="#CBD5E1" stroke-width="1"/></g>
<path d="M460.0,1200.0 a10,10 0 0 1 10,-10 h320.0 a10,10 0 0 1 10,10 v30.0 h-340.0 z" fill="#7C3AED"/>
<text x="474.0" y="1215.0" font-size="14.5" font-weight="700" fill="#FFFFFF">AssistantQuery</text>
<text x="786.0" y="1215.0" font-size="10.5" fill="#FFFFFF" fill-opacity="0.8" text-anchor="end">ai</text>
<text x="474.0" y="1244.5" font-size="11.5" fill="#0F172A" font-weight="650">AssistantQueryId</text>
<rect x="582.6" y="1236.0" width="21.2" height="12" rx="3" fill="#7C3AED" fill-opacity="0.13"/><text x="593.2" y="1245.0" text-anchor="middle" font-size="8.5" font-weight="600" fill="#7C3AED">PK</text>
<text x="786.0" y="1244.5" font-size="10" fill="#64748B" text-anchor="end">BIGINT</text>
<rect x="461.0" y="1251.0" width="338.0" height="21.0" fill="#F5F3FF"/>
<text x="474.0" y="1265.5" font-size="11.5" fill="#0F172A">SessionId</text>
<rect x="538.1" y="1257.0" width="21.2" height="12" rx="3" fill="#7C3AED" fill-opacity="0.13"/><text x="548.8" y="1266.0" text-anchor="middle" font-size="8.5" font-weight="600" fill="#7C3AED">FK</text>
<text x="786.0" y="1265.5" font-size="10" fill="#64748B" text-anchor="end">UNIQUEIDENTIFIER</text>
<text x="474.0" y="1286.5" font-size="11.5" fill="#0F172A">UserId</text>
<rect x="519.1" y="1278.0" width="21.2" height="12" rx="3" fill="#7C3AED" fill-opacity="0.13"/><text x="529.7" y="1287.0" text-anchor="middle" font-size="8.5" font-weight="600" fill="#7C3AED">FK</text>
<text x="786.0" y="1286.5" font-size="10" fill="#64748B" text-anchor="end">INT</text>
<rect x="461.0" y="1293.0" width="338.0" height="21.0" fill="#F5F3FF"/>
<text x="474.0" y="1307.5" font-size="11.5" fill="#0F172A">QuestionText</text>
<text x="786.0" y="1307.5" font-size="10" fill="#64748B" text-anchor="end">NVARCHAR(2000)</text>
<text x="474.0" y="1328.5" font-size="11.5" fill="#0F172A">GeneratedSql</text>
<text x="786.0" y="1328.5" font-size="10" fill="#64748B" text-anchor="end">NVARCHAR(MAX)</text>
<rect x="461.0" y="1335.0" width="338.0" height="21.0" fill="#F5F3FF"/>
<text x="474.0" y="1349.5" font-size="11.5" fill="#0F172A">ValidationOutcome</text>
<text x="786.0" y="1349.5" font-size="10" fill="#64748B" text-anchor="end">VARCHAR(20)</text>
<text x="474.0" y="1370.5" font-size="11.5" fill="#0F172A">WasExecuted</text>
<text x="786.0" y="1370.5" font-size="10" fill="#64748B" text-anchor="end">BIT</text>
<rect x="461.0" y="1377.0" width="338.0" height="21.0" fill="#F5F3FF"/>
<text x="474.0" y="1391.5" font-size="11.5" fill="#0F172A">AnswerText</text>
<text x="786.0" y="1391.5" font-size="10" fill="#64748B" text-anchor="end">NVARCHAR(MAX)</text>
<text x="474.0" y="1412.5" font-size="11.5" fill="#0F172A">AskedAtUtc</text>
<text x="786.0" y="1412.5" font-size="10" fill="#64748B" text-anchor="end">DATETIME2(3)</text>
<text x="474.0" y="1428.0" font-size="9.5" font-style="italic" fill="#64748B">every generated statement logged (auditability)</text>
<g filter="url(#card)"><rect x="860.0" y="1190.0" width="340.0" height="115.0" rx="10" fill="#FFFFFF" stroke="#CBD5E1" stroke-width="1"/></g>
<path d="M860.0,1200.0 a10,10 0 0 1 10,-10 h320.0 a10,10 0 0 1 10,10 v30.0 h-340.0 z" fill="#7C3AED"/>
<text x="874.0" y="1215.0" font-size="14.5" font-weight="700" fill="#FFFFFF">AssistantFeedback</text>
<text x="1186.0" y="1215.0" font-size="10.5" fill="#FFFFFF" fill-opacity="0.8" text-anchor="end">ai</text>
<text x="874.0" y="1244.5" font-size="11.5" fill="#0F172A" font-weight="650">AssistantQueryId</text>
<rect x="982.6" y="1236.0" width="21.2" height="12" rx="3" fill="#7C3AED" fill-opacity="0.13"/><text x="993.2" y="1245.0" text-anchor="middle" font-size="8.5" font-weight="600" fill="#7C3AED">PK</text>
<rect x="1007.8" y="1236.0" width="21.2" height="12" rx="3" fill="#7C3AED" fill-opacity="0.13"/><text x="1018.4" y="1245.0" text-anchor="middle" font-size="8.5" font-weight="600" fill="#7C3AED">FK</text>
<text x="1186.0" y="1244.5" font-size="10" fill="#64748B" text-anchor="end">BIGINT</text>
<rect x="861.0" y="1251.0" width="338.0" height="21.0" fill="#F5F3FF"/>
<text x="874.0" y="1265.5" font-size="11.5" fill="#0F172A">IsHelpful</text>
<text x="1186.0" y="1265.5" font-size="10" fill="#64748B" text-anchor="end">BIT</text>
<text x="874.0" y="1286.5" font-size="11.5" fill="#0F172A">Comment</text>
<text x="1186.0" y="1286.5" font-size="10" fill="#64748B" text-anchor="end">NVARCHAR(1000)</text>
<text x="60" y="1466.0" font-size="11" fill="#64748B">Generated from docs/erd/generate_erd.py - regenerate after any schema change.  Mirrors docs/database-schema.sql.  SofrDailyRate's four percentile and three average columns are shown collapsed.  analytics.* is views over core.*, not shown.</text>
</svg>